# xmcd
#
# Track frame offsets:
#	182
#	14695
#	34695
#
# Disc length: 645 seconds
#
# Revision: 1
# Processed by: cddbd v1.5.2PL0 Copyright (c) Steve Scherf et al.
# Submitted via: EasyCDDAExtractor 10.0.3.1
#
DISCID=1d028303
DTITLE=THE CLAN - SINGLE
DYEAR=19930428
DGENRE=
TTITLE0=Valeria - RADIO EDIT
TTITLE1=Valeria - EXTENDED VERSION
TTITLE2=Valeria - INSTRUMENTAL
EXTD=YEAR: 19930428
EXTT0=
EXTT1=
EXTT2=
PLAYORDER=
